. 
 
 
http://www.torrentday.com :  Your Key To The Scene.


Now TvTeam with [No-RAR] Releases.



(((((((((((((= Enjoy No RAR releases =))))))))))))))))))))



...................................NFO:....................................

.*******************************************************************************
                    At.Risk.2010.DVDRip.AC3.X264-BARC0DE
*******************************************************************************

-------------------------------------------------------------------------------
                              General Information
-------------------------------------------------------------------------------
Type.................: Movie
Name.................: At Risk
Movie Information....: http://www.imdb.com/title/tt1492723/
Genre................: Crime | Mystery

-------------------------------------------------------------------------------
                                    PLOT
-------------------------------------------------------------------------------
Best-selling crime writer Patricia Cornwell, At Risk introduces audiences to the 
high-powered and glamorous District Attorney Monique Lamont played by Andie MacDowell. 
She works to further her political dreams by solving a decades-old murder.

-------------------------------------------------------------------------------
                                    CAST
-------------------------------------------------------------------------------
Andie MacDowell	... 	Monique Lamont
Daniel Sunjata	... 	Win Garano
Ashley Williams	... 	Stump
Annabeth Gish	... 	Sykes
Diahann Carroll	... 	Nana
Marcia Bennett	... 	Kim Finlay
Richard Blackburn	... 	C.I. Records Clerk
Paula Boudreau	... 	Mitzi
Chad Connell	... 	Toby Huber
Patricia Cornwell	... 	Waitress
Dane DeHaan	... 	Cal Tradd
Lynne Deragon	... 	Louisa Barber
Edgar George	... 	Jamaican Man
Rothaford Gray	... 	Detective #1
Joan Gregson	... 	Vivian Finlay

-------------------------------------------------------------------------------
                                    MEDiA iNFO
-------------------------------------------------------------------------------

General
Complete name                    : At.Risk.2010.DVDRip.AC3.X264-BARC0DE.mkv
Format                           : Matroska
File size                        : 1.46 GiB
Duration                         : 1h 30mn
Overall bit rate                 : 2 308 Kbps

Video
ID                               : 1
Format                           : AVC
Format/Info                      : Advanced Video Codec
Format profile                   : High@L3.0
Format settings, CABAC           : Yes
Format settings, ReFrames        : 3 frames
Muxing mode                      : Container profile=Unknown@3.0
Codec ID                         : V_MPEG4/ISO/AVC
Duration                         : 1h 30mn
Bit rate                         : 1 814 Kbps
Nominal bit rate                 : 1 855 Kbps
Width                            : 720 pixels
Height                           : 400 pixels
Display aspect ratio             : 16:9
Frame rate                       : 25.000 fps
Resolution                       : 8 bits
Colorimetry                      : 4:2:0
Scan type                        : Progressive
Bits/(Pixel*Frame)               : 0.252
Stream size                      : 1.15 GiB (79%)
Writing library                  : x264 core 79


Audio
ID                               : 2
Format                           : AC-3
Format/Info                      : Audio Coding 3
Codec ID                         : A_AC3
Duration                         : 1h 30mn
Bit rate mode                    : Constant
Bit rate                         : 448 Kbps
Channel(s)                       : 6 channels
Channel positions                : Front: L C R, Side: L R, LFE
Sampling rate                    : 48.0 KHz
Stream size                      : 291 MiB (19%)
Language                         : English

Menu
00:00:00.000                     : Chapter 1
00:09:58.108                     : Chapter 2
00:19:38.828                     : Chapter 3
00:29:09.788                     : Chapter 4
00:37:59.028                     : Chapter 5
00:47:51.228                     : Chapter 6
00:57:30.508                     : Chapter 7
01:08:12.388                     : Chapter 8
01:15:54.468                     : Chapter 9
01:29:42.108                     : Chapter 10